<svg width="124" height="18" viewBox="0 0 124 18" fill="none" xmlns="http://www.w3.org/2000/svg">
<g clip-path="url(#clip0_114_1841)">
<path d="M26.5766 12.7104C25.8877 12.3268 25.3438 11.7972 24.945 11.1398C24.5462 10.4641 24.3468 9.71536 24.3468 8.8753C24.3468 8.03524 24.5462 7.28649 24.945 6.61079C25.3438 5.93509 25.8877 5.42375 26.5766 5.04025C27.2655 4.65674 28.045 4.47412 28.9152 4.47412C29.6041 4.47412 30.2567 4.60196 30.8187 4.83936C31.3988 5.07677 31.8883 5.44201 32.2871 5.89857L31.2719 6.86646C30.6555 6.19076 29.8941 5.86204 28.9877 5.86204C28.4076 5.86204 27.8819 5.98988 27.4105 6.24555C26.9392 6.50122 26.5947 6.86646 26.3228 7.32302C26.069 7.77957 25.9421 8.29091 25.9421 8.8753C25.9421 9.45969 26.069 9.97103 26.3228 10.4276C26.5766 10.8841 26.9392 11.2494 27.4105 11.505C27.8819 11.7607 28.3895 11.8886 28.9877 11.8886C29.8941 11.8886 30.6555 11.5416 31.2719 10.8659L32.2871 11.852C31.8883 12.3268 31.3988 12.6738 30.8187 12.9112C30.2386 13.1486 29.6041 13.2765 28.8971 13.2765C28.045 13.2765 27.2655 13.0756 26.5766 12.7104Z" fill="black"/>
<path d="M35.2602 12.7103C34.5713 12.3267 34.0093 11.7971 33.6105 11.1214C33.2117 10.4457 33.0123 9.697 33.0123 8.85694C33.0123 8.01688 33.2117 7.26813 33.6105 6.59243C34.0093 5.91673 34.5532 5.38713 35.2602 5.00363C35.9491 4.62012 36.7468 4.4375 37.6169 4.4375C38.4871 4.4375 39.2666 4.62012 39.9737 5.00363C40.6626 5.38713 41.2245 5.91673 41.6234 6.57417C42.0222 7.24987 42.2216 7.99862 42.2216 8.83868C42.2216 9.67874 42.0222 10.4275 41.6234 11.1032C41.2245 11.7789 40.6807 12.2902 39.9737 12.6737C39.2848 13.0572 38.4871 13.2399 37.6169 13.2399C36.7468 13.2764 35.9491 13.0755 35.2602 12.7103ZM39.1397 11.4867C39.593 11.231 39.9555 10.8658 40.2093 10.4092C40.4631 9.95267 40.59 9.42307 40.59 8.85694C40.59 8.29081 40.4631 7.76121 40.2093 7.30466C39.9555 6.8481 39.593 6.48286 39.1397 6.22719C38.6865 5.97152 38.1789 5.84369 37.5988 5.84369C37.0368 5.84369 36.5111 5.97152 36.0579 6.22719C35.6047 6.48286 35.2421 6.8481 34.9883 7.30466C34.7345 7.76121 34.6076 8.29081 34.6076 8.85694C34.6076 9.42307 34.7345 9.95267 34.9883 10.4092C35.2421 10.8658 35.6047 11.231 36.0579 11.4867C36.5111 11.7424 37.0187 11.8702 37.5988 11.8702C38.1789 11.8702 38.6865 11.7424 39.1397 11.4867Z" fill="black"/>
<path d="M43.8713 4.56543H47.5877C48.4941 4.56543 49.3099 4.74805 50.017 5.09503C50.724 5.44201 51.2678 5.95335 51.6667 6.61079C52.0474 7.26823 52.2468 8.01698 52.2468 8.85704C52.2468 9.71536 52.0474 10.4641 51.6667 11.1033C51.286 11.7607 50.724 12.2538 50.017 12.619C49.3099 12.966 48.5123 13.1486 47.6058 13.1486H43.8713V4.56543ZM47.5152 11.7972C48.1316 11.7972 48.6936 11.6694 49.1649 11.432C49.6363 11.1946 49.9988 10.8476 50.2526 10.4093C50.5064 9.97103 50.6333 9.44142 50.6333 8.85704C50.6333 8.27265 50.5064 7.74304 50.2526 7.30475C49.9988 6.86646 49.6363 6.51948 49.1649 6.28207C48.6936 6.04466 48.1316 5.91683 47.5152 5.91683H45.4485V11.7972H47.5152Z" fill="black"/>
<path d="M60.314 11.8155V13.1486H53.9327V4.56543H60.1509V5.89857H55.5099V8.12655H59.6251V9.44142H55.5099V11.8155H60.314Z" fill="black"/>
<path d="M63.8129 5.91683H60.9848V4.56543H68.2181V5.91683H65.39V13.1486H63.8129V5.91683Z" fill="black"/>
<path d="M76.9743 4.56543V13.1486H75.3971V9.47795H70.9918V13.1486H69.4146V4.56543H70.9918V8.10829H75.3971V4.56543H76.9743Z" fill="black"/>
<path d="M85.6398 11.8155V13.1486H79.2585V4.56543H85.4766V5.89857H80.8357V8.12655H84.9509V9.44142H80.8357V11.8155H85.6398Z" fill="black"/>
<path d="M89.0117 12.7103C88.3228 12.3267 87.7608 11.7971 87.362 11.1214C86.9632 10.4457 86.7637 9.697 86.7637 8.85694C86.7637 8.01688 86.9632 7.26813 87.362 6.59243C87.7608 5.91673 88.3047 5.38713 89.0117 5.00363C89.7187 4.62012 90.4982 4.4375 91.3684 4.4375C92.2386 4.4375 93.0181 4.62012 93.7251 5.00363C94.414 5.38713 94.976 5.91673 95.3748 6.57417C95.7737 7.24987 95.9731 7.99862 95.9731 8.83868C95.9731 9.67874 95.7737 10.4275 95.3748 11.1032C94.976 11.7789 94.4322 12.2902 93.7251 12.6737C93.0363 13.0572 92.2386 13.2399 91.3684 13.2399C90.4801 13.2764 89.7006 13.0755 89.0117 12.7103ZM92.8912 11.4867C93.3444 11.231 93.707 10.8658 93.9608 10.4092C94.2146 9.95267 94.3415 9.42307 94.3415 8.85694C94.3415 8.29081 94.2146 7.76121 93.9608 7.30466C93.707 6.8481 93.3444 6.48286 92.8912 6.22719C92.438 5.97152 91.9304 5.84369 91.3503 5.84369C90.7883 5.84369 90.2626 5.97152 89.8094 6.22719C89.3561 6.48286 88.9936 6.8481 88.7398 7.30466C88.486 7.76121 88.3591 8.29081 88.3591 8.85694C88.3591 9.42307 88.486 9.95267 88.7398 10.4092C88.9936 10.8658 89.3561 11.231 89.8094 11.4867C90.2626 11.7424 90.7702 11.8702 91.3503 11.8702C91.9304 11.8702 92.438 11.7424 92.8912 11.4867Z" fill="black"/>
<path d="M103.188 13.1486L101.448 10.6285C101.375 10.6285 101.267 10.6467 101.122 10.6467H99.2V13.1486H97.6228V4.56543H101.122C101.865 4.56543 102.499 4.69326 103.043 4.93067C103.587 5.16808 104.004 5.53332 104.294 5.98988C104.584 6.44643 104.729 6.9943 104.729 7.61521C104.729 8.25438 104.566 8.82051 104.258 9.27706C103.95 9.75188 103.496 10.0989 102.916 10.318L104.892 13.1486H103.188ZM102.626 6.35512C102.264 6.06293 101.738 5.91683 101.049 5.91683H99.2V9.33185H101.049C101.738 9.33185 102.264 9.18575 102.626 8.8753C102.989 8.5831 103.17 8.16307 103.17 7.61521C103.152 7.06734 102.989 6.64731 102.626 6.35512Z" fill="black"/>
<path d="M112.905 11.8155V13.1486H106.524V4.56543H112.742V5.89857H108.101V8.12655H112.216V9.44142H108.101V11.8155H112.905Z" fill="black"/>
<path d="M122.495 13.1486L122.477 7.46911L119.685 12.1807H118.978L116.187 7.54216V13.1486H114.682V4.56543H115.987L119.377 10.245L122.677 4.56543H123.982L124 13.1486H122.495Z" fill="black"/>
<path d="M18.9263 13.6965H1.0152C0.181279 13.6965 -0.290066 12.7468 0.217536 12.0711L8.86491 0.56598C9.44502 -0.20103 10.5871 -0.20103 11.1491 0.56598L19.7421 12.0529C20.2316 12.7286 19.7602 13.6965 18.9263 13.6965Z" fill="url(#paint0_linear_114_1841)"/>
<path d="M2.30232 15.9243L9.28185 6.66538C9.73507 6.06273 10.6234 6.08099 11.0585 6.66538L17.9836 15.9243C18.5275 16.673 18.0199 17.714 17.0953 17.714H3.19063C2.26606 17.714 1.74033 16.6548 2.30232 15.9243Z" fill="url(#paint1_linear_114_1841)"/>
<path d="M16.2977 13.6963L11.0585 6.66537C10.6053 6.06272 9.73508 6.06272 9.28186 6.66537L3.98829 13.6963H16.2977Z" fill="#6699FF"/>
</g>
<defs>
<linearGradient id="paint0_linear_114_1841" x1="0.0078125" y1="6.84359" x2="19.9404" y2="6.84359" gradientUnits="userSpaceOnUse">
<stop stop-color="#3F71FF"/>
<stop offset="1" stop-color="#6A73FF"/>
</linearGradient>
<linearGradient id="paint1_linear_114_1841" x1="2.07092" y1="11.9671" x2="18.2071" y2="11.9671" gradientUnits="userSpaceOnUse">
<stop stop-color="#3F71FF"/>
<stop offset="1" stop-color="#6A73FF"/>
</linearGradient>
<clipPath id="clip0_114_1841">
<rect width="124" height="17.7143" fill="white"/>
</clipPath>
</defs>
</svg>
