<svg width="124" height="23" viewBox="0 0 124 23" fill="none" xmlns="http://www.w3.org/2000/svg">
<path d="M11.2727 20.2985C11.2727 20.8433 10.83 21.29 10.288 21.2356C8.68507 21.0748 7.14056 20.5231 5.79278 19.6226C4.17071 18.5387 2.90647 16.9982 2.15992 15.1959C1.41336 13.3936 1.21803 11.4103 1.59862 9.49695C1.97921 7.5836 2.91863 5.82606 4.29809 4.44662C5.67753 3.06716 7.43507 2.12774 9.34842 1.74715C11.2618 1.36656 13.245 1.56189 15.0474 2.30845C16.8497 3.055 18.3902 4.31924 19.4741 5.94131C20.3746 7.28909 20.9263 8.8336 21.0871 10.4365C21.1415 10.9785 20.6948 11.4213 20.15 11.4213C19.6053 11.4213 19.17 10.9779 19.1021 10.4374C18.9498 9.22537 18.5174 8.06049 17.8338 7.03731C16.9667 5.73965 15.7343 4.72824 14.2924 4.13101C12.8506 3.53378 11.264 3.3775 9.73329 3.68196C8.2026 3.98645 6.79657 4.73797 5.69302 5.84155C4.58944 6.9451 3.83792 8.35113 3.53343 9.88182C3.22897 11.4125 3.38525 12.9991 3.98248 14.441C4.57971 15.8829 5.59112 17.1153 6.88879 17.9823C7.91196 18.666 9.07685 19.0983 10.2889 19.2506C10.8294 19.3185 11.2727 19.7538 11.2727 20.2985Z" fill="#1350FF"/>
<path fill-rule="evenodd" clip-rule="evenodd" d="M17.3701 12.2223C17.0842 10.9508 15.2956 10.9588 15.0207 12.2327L15.0103 12.2813L14.9898 12.3756C14.69 13.7372 13.6104 14.7821 12.2541 15.0214C10.9456 15.2522 10.9456 17.1573 12.2541 17.3882C13.6151 17.6283 14.6976 18.6796 14.993 20.0483L15.0207 20.1769C15.2956 21.4508 17.0842 21.4587 17.3701 20.1873L17.4039 20.0374C17.7104 18.6737 18.7946 17.63 20.1533 17.3903C21.464 17.159 21.464 15.2505 20.1533 15.0192C18.8018 14.7808 17.722 13.7469 17.4088 12.3938C17.4 12.356 17.3919 12.3198 17.3831 12.2805L17.3701 12.2223Z" fill="url(#paint0_linear_115_2586)"/>
<path d="M117.602 16.0457V9.06565H119.6V10.3372H119.681C119.762 10.1388 119.861 9.95394 119.978 9.78259C120.095 9.61125 120.234 9.46245 120.396 9.33619C120.567 9.20092 120.761 9.09721 120.977 9.02507C121.202 8.9439 121.454 8.90332 121.732 8.90332C122.065 8.90332 122.371 8.96194 122.65 9.07918C122.929 9.18739 123.168 9.35423 123.366 9.57968C123.564 9.80514 123.716 10.0802 123.825 10.4048C123.941 10.7295 124 11.1038 124 11.5276V16.0457H122.003V11.7982C122.003 10.8963 121.611 10.4454 120.828 10.4454C120.675 10.4454 120.522 10.468 120.369 10.5131C120.225 10.5491 120.095 10.6123 119.978 10.7024C119.861 10.7836 119.766 10.8873 119.694 11.0136C119.631 11.1398 119.6 11.2886 119.6 11.46V16.0457H117.602Z" fill="#08103B"/>
<path d="M116.501 16.7493C116.501 17.4887 116.19 18.0343 115.569 18.3861C114.949 18.7378 113.972 18.9136 112.64 18.9136C111.975 18.9136 111.426 18.873 110.994 18.7919C110.562 18.7197 110.216 18.6115 109.955 18.4672C109.703 18.3229 109.523 18.1516 109.415 17.9532C109.316 17.7548 109.266 17.5383 109.266 17.3039C109.266 16.9071 109.383 16.605 109.617 16.3975C109.851 16.1991 110.18 16.0458 110.603 15.9376V15.8565C110.306 15.7663 110.067 15.64 109.887 15.4777C109.716 15.3063 109.631 15.0674 109.631 14.7607C109.631 14.4181 109.743 14.1655 109.968 14.0032C110.202 13.8409 110.508 13.7146 110.886 13.6245V13.5433C110.472 13.3449 110.148 13.0653 109.914 12.7046C109.689 12.3439 109.577 11.9065 109.577 11.3925C109.577 10.9866 109.649 10.6304 109.793 10.3238C109.936 10.0082 110.139 9.74664 110.4 9.53922C110.67 9.3318 110.989 9.17398 111.358 9.06576C111.727 8.95754 112.141 8.90343 112.6 8.90343C113.041 8.90343 113.45 8.95304 113.828 9.05224V8.67347C113.828 8.40293 113.923 8.17747 114.112 7.99711C114.301 7.81674 114.562 7.72656 114.895 7.72656H116.123V9.18751H114.449V9.30925C114.827 9.50765 115.119 9.78271 115.327 10.1344C115.542 10.4771 115.651 10.8965 115.651 11.3925C115.651 11.7983 115.578 12.1545 115.434 12.4611C115.291 12.7677 115.083 13.0293 114.814 13.2457C114.544 13.4531 114.22 13.6109 113.842 13.7191C113.473 13.8274 113.059 13.8815 112.6 13.8815C112.393 13.8815 112.195 13.8725 112.006 13.8544C111.817 13.8274 111.637 13.7913 111.466 13.7462C111.367 13.8003 111.282 13.8679 111.21 13.9491C111.147 14.0303 111.115 14.134 111.115 14.2602C111.115 14.3685 111.142 14.4541 111.196 14.5173C111.25 14.5804 111.322 14.63 111.412 14.6661C111.511 14.6931 111.624 14.7111 111.75 14.7202C111.876 14.7292 112.006 14.7337 112.141 14.7337H113.734C114.229 14.7337 114.652 14.7833 115.003 14.8825C115.354 14.9817 115.641 15.1215 115.866 15.3018C116.091 15.4822 116.253 15.6941 116.352 15.9376C116.451 16.1811 116.501 16.4517 116.501 16.7493ZM114.611 16.8981C114.611 16.7177 114.539 16.5734 114.395 16.4652C114.251 16.366 113.977 16.3164 113.572 16.3164H111.183C111.003 16.4697 110.913 16.6591 110.913 16.8845C110.913 17.101 111.003 17.2768 111.183 17.4121C111.372 17.5564 111.687 17.6285 112.128 17.6285H113.302C113.761 17.6285 114.094 17.5654 114.301 17.4391C114.508 17.3129 114.611 17.1325 114.611 16.8981ZM112.6 12.6099C113.005 12.6099 113.297 12.5107 113.477 12.3123C113.666 12.1139 113.761 11.8614 113.761 11.5548V11.2301C113.761 10.9235 113.666 10.671 113.477 10.4726C113.297 10.2742 113.005 10.175 112.6 10.175C112.204 10.175 111.916 10.2742 111.736 10.4726C111.556 10.671 111.466 10.9235 111.466 11.2301V11.5548C111.466 11.8614 111.556 12.1139 111.736 12.3123C111.916 12.5107 112.204 12.6099 112.6 12.6099Z" fill="#08103B"/>
<path d="M105.02 8.17283C104.57 8.17283 104.255 8.08265 104.075 7.90228C103.904 7.7129 103.819 7.48745 103.819 7.22592V6.83363C103.819 6.56308 103.904 6.33763 104.075 6.15726C104.255 5.9769 104.57 5.88672 105.02 5.88672C105.47 5.88672 105.78 5.9769 105.951 6.15726C106.131 6.33763 106.221 6.56308 106.221 6.83363V7.22592C106.221 7.48745 106.131 7.7129 105.951 7.90228C105.78 8.08265 105.47 8.17283 105.02 8.17283ZM101.808 14.4901H104.021V10.6213H101.808V9.06563H106.019V14.4901H108.07V16.0457H101.808V14.4901Z" fill="#08103B"/>
<path d="M96.4139 16.208C95.64 16.208 94.9652 16.0908 94.3893 15.8563C93.8224 15.6219 93.3951 15.3017 93.1071 14.8959L94.2273 13.8543C94.4973 14.1519 94.8122 14.3864 95.1722 14.5577C95.541 14.72 95.9596 14.8012 96.4274 14.8012C96.8234 14.8012 97.1337 14.7426 97.3587 14.6254C97.5836 14.4991 97.6961 14.3097 97.6961 14.0572C97.6961 13.8588 97.6196 13.7235 97.4667 13.6514C97.3138 13.5702 97.1023 13.5071 96.8323 13.462L95.7121 13.2862C95.3972 13.2411 95.1046 13.1734 94.8348 13.0832C94.5647 12.984 94.3309 12.8533 94.1329 12.691C93.9349 12.5286 93.7776 12.3302 93.6605 12.0958C93.5436 11.8613 93.485 11.5772 93.485 11.2435C93.485 10.5131 93.7639 9.94041 94.3219 9.52557C94.8799 9.11074 95.6626 8.90332 96.6703 8.90332C97.3542 8.90332 97.9345 8.99801 98.4117 9.18739C98.8974 9.36776 99.2843 9.62928 99.5723 9.97198L98.5734 11.1083C98.3666 10.8828 98.1012 10.6934 97.7772 10.5401C97.4532 10.3868 97.0619 10.3102 96.6029 10.3102C95.829 10.3102 95.442 10.5446 95.442 11.0136C95.442 11.221 95.5187 11.3653 95.6717 11.4464C95.8246 11.5186 96.0361 11.5772 96.3059 11.6223L97.4128 11.7982C97.7277 11.8432 98.0201 11.9154 98.2901 12.0146C98.5599 12.1048 98.794 12.231 98.992 12.3934C99.1988 12.5557 99.3608 12.7541 99.4779 12.9886C99.5948 13.223 99.6534 13.5071 99.6534 13.8408C99.6534 14.5712 99.3698 15.1484 98.803 15.5723C98.245 15.9961 97.4488 16.208 96.4139 16.208Z" fill="#08103B"/>
<path d="M88.5909 16.208C87.421 16.208 86.5346 15.8834 85.9318 15.2341C85.329 14.5848 85.0275 13.701 85.0275 12.5827C85.0275 12.0146 85.104 11.5051 85.2569 11.0542C85.4189 10.5942 85.6439 10.2064 85.9318 9.89081C86.2288 9.56616 86.5841 9.32267 86.998 9.16034C87.421 8.98899 87.8935 8.90332 88.4155 8.90332C88.9372 8.90332 89.4053 8.98899 89.8192 9.16034C90.2331 9.32267 90.584 9.55714 90.8719 9.86376C91.1599 10.1704 91.3802 10.5446 91.5331 10.9865C91.6951 11.4194 91.7762 11.9064 91.7762 12.4475V13.0427H87.0115V13.1644C87.0115 13.6153 87.1512 13.9806 87.4301 14.2601C87.709 14.5307 88.1185 14.6659 88.6583 14.6659C89.0722 14.6659 89.4276 14.5893 89.7246 14.436C90.0216 14.2736 90.2779 14.0617 90.4938 13.8002L91.5738 14.9771C91.3037 15.3107 90.9259 15.5993 90.4399 15.8428C89.954 16.0863 89.3376 16.208 88.5909 16.208ZM88.4289 10.3372C87.9969 10.3372 87.6504 10.4725 87.3896 10.743C87.1377 11.0046 87.0115 11.3608 87.0115 11.8117V11.9199H89.8192V11.8117C89.8192 11.3518 89.6932 10.991 89.441 10.7295C89.1982 10.468 88.8607 10.3372 88.4289 10.3372Z" fill="#08103B"/>
<path d="M77.1234 6.60352H80.1604C81.4291 6.60352 82.3694 7.00933 82.9813 7.82097C83.5932 8.63261 83.8991 9.80046 83.8991 11.3245C83.8991 12.8486 83.5932 14.0165 82.9813 14.8281C82.3694 15.6397 81.4291 16.0456 80.1604 16.0456H77.1234V6.60352ZM80.0254 14.4493C80.6282 14.4493 81.0691 14.2554 81.348 13.8677C81.6271 13.4799 81.7665 12.9162 81.7665 12.1768V10.4588C81.7665 9.72832 81.6271 9.16919 81.348 8.78141C81.0691 8.39362 80.6282 8.19973 80.0254 8.19973H79.1211V14.4493H80.0254Z" fill="#08103B"/>
<path d="M72.2155 16.2082C71.7117 16.2082 71.3473 16.1 71.1223 15.8836C70.9064 15.6581 70.7983 15.3921 70.7983 15.0855V14.612C70.7983 14.3054 70.9064 14.0439 71.1223 13.8274C71.3473 13.602 71.7117 13.4893 72.2155 13.4893C72.7194 13.4893 73.0794 13.602 73.2952 13.8274C73.5202 14.0439 73.6327 14.3054 73.6327 14.612V15.0855C73.6327 15.3921 73.5202 15.6581 73.2952 15.8836C73.0794 16.1 72.7194 16.2082 72.2155 16.2082Z" fill="#08103B"/>
<path d="M64.3114 16.208C63.1417 16.208 62.2553 15.8834 61.6525 15.2341C61.0497 14.5848 60.7482 13.701 60.7482 12.5827C60.7482 12.0146 60.8247 11.5051 60.9776 11.0542C61.1396 10.5942 61.3646 10.2064 61.6525 9.89081C61.9495 9.56616 62.3048 9.32267 62.7188 9.16034C63.1417 8.98899 63.6142 8.90332 64.1359 8.90332C64.6579 8.90332 65.1257 8.98899 65.5396 9.16034C65.9535 9.32267 66.3045 9.55714 66.5924 9.86376C66.8803 10.1704 67.1009 10.5446 67.2538 10.9865C67.4158 11.4194 67.4969 11.9064 67.4969 12.4475V13.0427H62.7322V13.1644C62.7322 13.6153 62.8717 13.9806 63.1508 14.2601C63.4297 14.5307 63.8392 14.6659 64.379 14.6659C64.7929 14.6659 65.1483 14.5893 65.4453 14.436C65.7423 14.2736 65.9986 14.0617 66.2145 13.8002L67.2943 14.9771C67.0244 15.3107 66.6466 15.5993 66.1606 15.8428C65.6747 16.0863 65.0583 16.208 64.3114 16.208ZM64.1494 10.3372C63.7176 10.3372 63.3711 10.4725 63.1101 10.743C62.8582 11.0046 62.7322 11.3608 62.7322 11.8117V11.9199H65.5396V11.8117C65.5396 11.3518 65.4137 10.991 65.1618 10.7295C64.9189 10.468 64.5814 10.3372 64.1494 10.3372Z" fill="#08103B"/>
<path d="M56.5693 16.0456C55.8495 16.0456 55.3141 15.8562 54.9632 15.4774C54.6122 15.0986 54.4368 14.6162 54.4368 14.03V10.6211H52.5471V9.06548H53.7754C54.0724 9.06548 54.2839 9.00686 54.4098 8.88963C54.5358 8.77239 54.5988 8.55595 54.5988 8.24032V6.60352H56.4345V9.06548H59.1473V10.6211H56.4345V14.4899H59.1473V16.0456H56.5693Z" fill="#08103B"/>
<path d="M50.4605 16.0457C50.0466 16.0457 49.7135 15.942 49.4616 15.7346C49.2097 15.5182 49.0612 15.2115 49.0161 14.8147H48.9487C48.8228 15.2747 48.5708 15.6219 48.193 15.8563C47.8239 16.0908 47.3696 16.208 46.8297 16.208C46.1548 16.208 45.6103 16.0277 45.1964 15.667C44.7915 15.2972 44.5891 14.7832 44.5891 14.1248C44.5891 13.3944 44.8545 12.8533 45.3853 12.5016C45.9164 12.1499 46.6947 11.974 47.7205 11.974H48.8406V11.6223C48.8406 11.2075 48.7416 10.8963 48.5439 10.6889C48.3549 10.4725 48.031 10.3643 47.572 10.3643C47.149 10.3643 46.8071 10.4454 46.5462 10.6078C46.2852 10.7701 46.0602 10.982 45.8713 11.2435L44.7781 10.2696C45.0121 9.87278 45.3765 9.54812 45.8713 9.29561C46.3754 9.03408 47.0186 8.90332 47.8013 8.90332C48.7554 8.90332 49.4976 9.12427 50.0284 9.56616C50.5683 9.99903 50.8384 10.6574 50.8384 11.5411V14.5983H51.6076V16.0457H50.4605ZM47.5855 14.8959C47.9364 14.8959 48.2334 14.8102 48.4762 14.6389C48.7193 14.4675 48.8406 14.2195 48.8406 13.8949V13.0562H47.7744C46.9556 13.0562 46.5462 13.3312 46.5462 13.8814V14.1519C46.5462 14.3954 46.6407 14.5803 46.8297 14.7065C47.0186 14.8328 47.2706 14.8959 47.5855 14.8959Z" fill="#08103B"/>
<path d="M36.7118 14.4902H38.8443V7.59128H36.7118V6.03564H40.8421V14.4902H42.9746V16.0458H36.7118V14.4902Z" fill="#08103B"/>
<path d="M31.6017 16.2081C30.81 16.2081 30.1216 16.0773 29.5366 15.8158C28.9519 15.5543 28.4794 15.1981 28.1194 14.7472L29.2938 13.4485C29.6356 13.8273 30.0091 14.1069 30.4139 14.2872C30.8278 14.4676 31.2464 14.5578 31.6694 14.5578C32.1551 14.5578 32.5241 14.4496 32.7761 14.2331C33.028 14.0167 33.1539 13.7056 33.1539 13.2997C33.1539 12.9661 33.0549 12.7136 32.8569 12.5422C32.668 12.3709 32.3443 12.2491 31.8853 12.177L30.8999 12.0146C30.0542 11.8704 29.4423 11.5592 29.0644 11.0813C28.6863 10.5943 28.4973 10.0036 28.4973 9.30919C28.4973 8.39835 28.7943 7.69493 29.3884 7.19893C29.9821 6.69392 30.8144 6.44141 31.8853 6.44141C32.6141 6.44141 33.2485 6.55413 33.7884 6.77959C34.3283 7.00504 34.7647 7.31166 35.0975 7.69944L33.9504 8.98453C33.6985 8.70497 33.4015 8.48853 33.0596 8.33522C32.7175 8.1729 32.3305 8.09173 31.8988 8.09173C30.9898 8.09173 30.5355 8.46599 30.5355 9.2145C30.5355 9.53915 30.6345 9.78264 30.8325 9.94497C31.0393 10.1073 31.3724 10.229 31.8314 10.3102L32.8165 10.4861C33.5813 10.6213 34.1707 10.9099 34.5846 11.3518C34.9985 11.7937 35.2056 12.3889 35.2056 13.1374C35.2056 13.5793 35.1291 13.9896 34.9762 14.3684C34.823 14.7381 34.5937 15.0628 34.2878 15.3424C33.9818 15.6129 33.6039 15.8248 33.1539 15.9781C32.7131 16.1314 32.1958 16.2081 31.6017 16.2081Z" fill="#08103B"/>
<defs>
<linearGradient id="paint0_linear_115_2586" x1="16.2046" y1="10.1401" x2="16.2046" y2="22.2694" gradientUnits="userSpaceOnUse">
<stop stop-color="#D54BF6"/>
<stop offset="1" stop-color="#4B10D1"/>
</linearGradient>
</defs>
</svg>
